<svg id="レイヤー_2" data-name="レイヤー 2" xmlns="http://www.w3.org/2000/svg" viewBox="0 0 101.666 142.316">
  <g id="STU48">
    <rect id="長方形_282" data-name="長方形 282" width="101.666" height="142.316" fill="#fff"/>
    <rect id="長方形_283" data-name="長方形 283" width="101.666" height="9.012" transform="translate(0 38.256)" fill="#c0e7f1"/>
    <rect id="長方形_284" data-name="長方形 284" width="101.666" height="9.012" transform="translate(0 57.27)" fill="#c0e7f1"/>
    <rect id="長方形_285" data-name="長方形 285" width="101.666" height="9.012" transform="translate(0 76.277)" fill="#c0e7f1"/>
    <rect id="長方形_286" data-name="長方形 286" width="101.666" height="9.012" transform="translate(0 95.284)" fill="#c0e7f1"/>
    <rect id="長方形_287" data-name="長方形 287" width="101.666" height="9.012" transform="translate(0 114.291)" fill="#c0e7f1"/>
    <rect id="長方形_288" data-name="長方形 288" width="101.666" height="9.012" transform="translate(0 133.297)" fill="#c0e7f1"/>
    <rect id="長方形_289" data-name="長方形 289" width="101.666" height="9.012" fill="#c0e7f1"/>
    <rect id="長方形_290" data-name="長方形 290" width="101.666" height="9.012" transform="translate(0 19.128)" fill="#c0e7f1"/>
    <path id="パス_39" data-name="パス 39" d="M77.549,109.4a12.816,12.816,0,0,0,7.767-11.488A12.624,12.624,0,0,0,72.551,85.4a12.825,12.825,0,0,0-12.8,12.446v.064A12.816,12.816,0,0,0,67.509,109.4a16.186,16.186,0,1,0,10.071,0ZM61.874,97.909v-.077a10.537,10.537,0,1,1,0,.077ZM72.52,138.5a13.895,13.895,0,0,1-14.041-13.958v-.07A14.041,14.041,0,1,1,72.52,138.514Z" transform="translate(-20.388 -30.893)" fill="#0e3192"/>
    <path id="パス_40" data-name="パス 40" d="M26.213,140h2.151V129.645h5.4V127.73h-5.4V86.78H25.415L0,125.311v4.334H26.213ZM.894,127.7,26.213,89.371V127.7Z" transform="translate(0 -31.393)" fill="#0e3192"/>
    <path id="パス_41" data-name="パス 41" d="M25.409,24.962a18.777,18.777,0,0,0-5.865-2.381c-1.838-.383-5.693-.67-8.221-1.8a10.174,10.174,0,0,1-5.744-9.363v-.077a10.678,10.678,0,1,1,21.349,0h2.157A12.605,12.605,0,0,0,21.949,0H10.614A12.8,12.8,0,0,0,3.389,11.271v.07A11.57,11.57,0,0,0,8.6,21.49a16.074,16.074,0,0,0,7.372,2.553c5.017.8,7.021,1.634,10.046,4.078.4.357.728.683.964.938a14.258,14.258,0,0,1,3.312,9.235,14.064,14.064,0,1,1-28.127.07V38.25H0v.894A16.128,16.128,0,0,0,16.224,54.461a16.293,16.293,0,0,0,16.231-16.18A15.759,15.759,0,0,0,25.409,24.962Z" fill="#0e3192"/>
    <path id="パス_42" data-name="パス 42" d="M116.11,0V38.295h0c0,7.933-5.6,14.207-13.307,14.207s-13.288-6.28-13.288-14.207V0H51.89V1.953H69.614V52.93h2.17V1.953H87.351V38.295h0c0,9.031,6.019,16.16,15.452,16.16s15.471-7.18,15.471-16.16h0V0Z" transform="translate(-18.771)" fill="#0e3192"/>
  </g>
</svg>